<svg xmlns="http://www.w3.org/2000/svg" width="363" height="822" viewBox="0 0 363 822" fill="none"><path fill-rule="evenodd" clip-rule="evenodd" d="M238.09 349.492C245.886 287.851 239.86 214.389 290.161 177.918C342.432 140.017 414.171 159.726 476.481 176.643C539.175 193.663 617.524 210.536 637.725 272.278C657.452 332.574 584.266 379.587 562.359 439.125C544.034 488.928 560.178 550.012 521.978 586.847C475.637 631.532 407.113 668.679 346.352 647.412C286.573 626.488 272.093 551.339 250.462 491.812C233.555 445.286 231.879 398.604 238.09 349.492Z" stroke="white" stroke-width="6"></path><path fill-rule="evenodd" clip-rule="evenodd" d="M442.306 312.359C472 341.136 491.855 376.239 500.102 416.759C512.114 475.774 536.783 543.712 498.928 590.553C459.184 639.732 383.779 651.781 322.379 636.673C267.645 623.204 235.824 569.313 209.676 519.377C190.261 482.299 198.334 441.013 198.012 399.161C197.648 351.964 172.896 295.175 207.705 263.301C242.543 231.401 297.767 255.811 344.003 265.48C380.943 273.204 415.205 286.095 442.306 312.359Z" stroke="white" stroke-width="6"></path><path fill-rule="evenodd" clip-rule="evenodd" d="M199.184 225.25C249.579 193.992 317.059 205.245 370.203 231.56C419.255 255.849 446.041 306.25 465.831 357.284C484.426 405.237 496.003 457.797 476.368 505.333C457.107 551.96 410.734 577.241 365.634 599.849C317.401 624.028 262.337 661.342 214.349 636.679C167.075 612.382 173.802 544.677 158.975 493.634C147.367 453.675 132.263 416.475 138.428 375.324C146.74 319.839 151.507 254.823 199.184 225.25Z" stroke="white" stroke-width="6"></path></svg>